<?xml version="1.0" encoding="UTF-8"?>
<svg id="Layer_1" data-name="Layer 1" xmlns="http://www.w3.org/2000/svg" viewBox="0 0 841.89 595.28">
  <defs>
    <style>
      .cls-1 {
        fill: #b4d8a8;
      }

      .cls-2 {
        fill: none;
      }

      .cls-3 {
        fill: #3d8d7a;
      }

      .cls-4 {
        fill: #58595b;
      }
    </style>
  </defs>
  <path class="cls-2" d="M397.19,219.84c-30.66-31.46-73.99-50.44-123.52-50.44v50.93c37.67,0,73.3,17.7,96.26,46.31,16.06,20.02,25.92,45.37,25.92,73.76h48.81c0-33.57-8.72-64.3-24.13-90.16-6.6-11.08-14.44-21.26-23.34-30.39Z"/>
  <path class="cls-2" d="M567.4,220.33v-50.93c-49.53,0-92.86,18.99-123.52,50.44,10.68,14.49,19.84,30.16,27.26,46.79,22.96-28.61,58.59-46.31,96.26-46.31Z"/>
  <path class="cls-2" d="M567.4,340.39v-83.98c-37.73,0-69.64,24.88-80.24,59.12,1.77,8.15,3.15,16.44,4.11,24.86h76.13Z"/>
  <g>
    <path class="cls-2" d="M471.14,266.64c19.51-24.32,48.18-40.75,79.48-45.14,9.58-1.34,16.78-9.4,16.78-19.07v-12.52c0-11.53-10.01-20.6-21.46-19.29-40.56,4.65-75.92,22.4-102.06,49.23h0c10.68,14.49,19.84,30.17,27.26,46.79Z"/>
    <path class="cls-2" d="M505.53,340.39h42.47c10.71,0,19.4-8.68,19.4-19.4v-42.22c0-13.17-12.82-22.43-25.38-18.46-26.14,8.28-46.75,29-54.86,55.22,1.24,5.73,2.28,11.53,3.13,17.39,3.49,4.48,8.94,7.47,15.24,7.47Z"/>
    <path class="cls-2" d="M299.05,260.32c-12.56-3.98-25.38,5.29-25.38,18.46v42.22c0,10.71,8.68,19.4,19.4,19.4h42.47c6.29,0,11.75-2.98,15.24-7.47.85-5.86,1.89-11.66,3.13-17.39-8.11-26.22-28.72-46.94-54.86-55.22Z"/>
    <path class="cls-1" d="M568.53,119.01c-57.66,7.29-109.24,34.04-147.99,73.46,0,0,0,0,0,0,8.41,8.55,16.21,17.7,23.34,27.38,26.14-26.82,61.5-44.58,102.06-49.23,11.45-1.31,21.46,7.76,21.46,19.29v12.52c0,9.67-7.2,17.73-16.78,19.07-31.3,4.38-59.97,20.82-79.48,45.14,6.93,15.53,12.33,31.9,16.02,48.9,8.11-26.22,28.72-46.94,54.86-55.22,12.56-3.98,25.38,5.29,25.38,18.46v42.22c0,10.71-8.68,19.4-19.4,19.4h-42.47c-6.29,0-11.75-2.98-15.24-7.47.36,2.48.69,4.96.98,7.47.22,1.92-1.11-.33-.94,1.61,1.14,12.44-14.5,27.35-27,27.35h115.9c11.74,0,21.26-9.52,21.26-21.26v-200.96c0-17.09-15.01-30.27-31.96-28.12Z"/>
    <path class="cls-3" d="M491.3,340.68c-.01-.1-.02-.19-.03-.29-.29-2.5-.62-4.99-.98-7.47-.85-5.86-1.89-11.66-3.13-17.39-3.69-17-9.09-33.37-16.02-48.9-7.42-16.63-16.58-32.3-27.26-46.79h0c-7.13-9.68-14.93-18.83-23.34-27.38t0,0c-38.75-39.42-90.33-66.17-147.99-73.46-16.96-2.14-31.96,11.03-31.96,28.12v200.96c0,11.74,9.52,21.26,21.26,21.26h203.67c15.41,0,27.52-13.37,25.79-28.67ZM335.54,340.39h-42.47c-10.71,0-19.4-8.68-19.4-19.4v-42.22c0-13.17,12.82-22.43,25.38-18.46,26.14,8.28,46.75,29,54.86,55.22.02.08.05.16.07.24,1.91,6.24.41,12.5-3.2,17.15-3.49,4.48-8.94,7.47-15.24,7.47ZM416.91,340.39h-3.01c-9.66,0-17.85-7.1-19.2-16.66-3.04-21.66-11.92-41.08-24.77-57.09-19.51-24.32-48.18-40.75-79.48-45.14-9.58-1.34-16.78-9.4-16.78-19.07v-12.52c0-11.53,10.01-20.6,21.46-19.29,40.56,4.65,75.92,22.4,102.06,49.23h0c8.9,9.13,16.74,19.31,23.34,30.39t0,0c12.02,20.16,19.96,43.28,22.88,68.4,1.34,11.57-7.61,21.76-19.26,21.76h-7.25Z"/>
  </g>
  <g>
    <path class="cls-4" d="M245.37,478.16c-2.16,0-3.74-.32-4.73-.96-1-.64-1.62-1.52-1.86-2.64-.24-1.12-.36-2.32-.36-3.6v-44.82c0-1.28.12-2.44.36-3.48.24-1.04.88-1.88,1.92-2.52,1.04-.64,2.68-.96,4.91-.96s4.01.48,5.09,1.44c1.08.96,1.62,2.48,1.62,4.55l-1.08,3.36c.4-.88,1.08-1.84,2.04-2.88.96-1.04,2.14-2.08,3.54-3.12,1.4-1.04,2.98-1.88,4.73-2.52,1.76-.64,3.59-.96,5.51-.96,2.64,0,5.05.44,7.25,1.32,2.2.88,4.15,2.16,5.87,3.83,1.72,1.68,3.21,3.71,4.49,6.11,1.36-2.08,2.88-3.97,4.55-5.69,1.68-1.72,3.63-3.07,5.87-4.07,2.24-1,4.75-1.5,7.55-1.5,4.63,0,8.53,1.16,11.68,3.48,3.16,2.32,5.55,5.61,7.19,9.89,1.64,4.27,2.46,9.37,2.46,15.28v23.25c0,1.36-.14,2.58-.42,3.66-.28,1.08-.92,1.94-1.92,2.58-1,.64-2.62.96-4.85.96s-3.88-.34-4.91-1.02c-1.04-.68-1.68-1.56-1.92-2.64-.24-1.08-.36-2.3-.36-3.65v-23.25c0-2.95-.36-5.51-1.08-7.67-.72-2.16-1.78-3.83-3.18-5.03-1.4-1.2-3.22-1.8-5.45-1.8-2.4,0-4.46.58-6.17,1.74-1.72,1.16-3.06,2.82-4.01,4.97-.96,2.16-1.44,4.79-1.44,7.91v23.37c0,1.36-.2,2.62-.6,3.77-.4,1.16-1.18,2.04-2.34,2.64-1.16.6-2.82.82-4.97.66-2-.08-3.46-.48-4.37-1.2-.92-.72-1.48-1.62-1.68-2.7-.2-1.08-.3-2.22-.3-3.42v-23.25c0-2.95-.36-5.53-1.08-7.73-.72-2.2-1.78-3.87-3.18-5.03-1.4-1.16-3.26-1.74-5.57-1.74-2.48,0-4.57.64-6.29,1.92-1.72,1.28-3.02,3-3.89,5.15-.88,2.16-1.32,4.63-1.32,7.43v23.49c0,1.28-.14,2.48-.42,3.6-.28,1.12-.92,1.98-1.92,2.58-1,.6-2.66.9-4.97.9Z"/>
    <path class="cls-4" d="M385.09,478.04c-2.32,0-4.04-.44-5.15-1.32-1.12-.88-1.68-2.08-1.68-3.6l.84-3.95c-.64,1.04-1.72,2.26-3.24,3.66-1.52,1.4-3.52,2.64-5.99,3.71-2.48,1.08-5.47,1.62-8.99,1.62-3.76,0-7.29-.78-10.61-2.34-3.32-1.56-6.23-3.71-8.75-6.47-2.52-2.76-4.51-5.91-5.99-9.47-1.48-3.55-2.22-7.37-2.22-11.44s.74-7.61,2.22-11.08c1.48-3.48,3.49-6.57,6.05-9.29,2.56-2.72,5.49-4.85,8.81-6.41,3.31-1.56,6.81-2.34,10.49-2.34,3.27,0,6.05.44,8.33,1.32,2.28.88,4.21,1.98,5.81,3.3,1.6,1.32,2.92,2.7,3.95,4.13l-.72-3.48c0-1.76.56-3.09,1.68-4.01,1.12-.92,2.88-1.38,5.27-1.38,2.24,0,3.83.34,4.79,1.02.96.68,1.56,1.6,1.8,2.76.24,1.16.36,2.46.36,3.89v43.86c0,1.36-.12,2.6-.36,3.71-.24,1.12-.86,2-1.86,2.64-1,.64-2.62.96-4.85.96ZM363.04,464.13c2.71,0,5.15-.68,7.31-2.04,2.16-1.36,3.89-3.21,5.21-5.57,1.32-2.36,1.98-4.97,1.98-7.85,0-3.12-.68-5.83-2.04-8.15-1.36-2.32-3.14-4.13-5.33-5.45-2.2-1.32-4.66-1.98-7.37-1.98-2.96,0-5.59.7-7.91,2.1-2.32,1.4-4.13,3.28-5.45,5.63-1.32,2.36-1.98,5.01-1.98,7.97s.68,5.47,2.04,7.79c1.36,2.32,3.21,4.15,5.57,5.51,2.36,1.36,5.01,2.04,7.97,2.04Z"/>
    <path class="cls-4" d="M411.22,478.28c-2.16,0-3.74-.34-4.73-1.02-1-.68-1.62-1.58-1.86-2.7-.24-1.12-.36-2.36-.36-3.71v-44.46c0-1.44.12-2.7.36-3.77.24-1.08.86-1.92,1.86-2.52,1-.6,2.62-.9,4.85-.9s3.73.28,4.73.84c1,.56,1.64,1.26,1.92,2.1.28.84.42,1.66.42,2.46l-.96,2.16c.4-.64.96-1.42,1.68-2.34.72-.92,1.68-1.84,2.88-2.76,1.2-.92,2.64-1.68,4.31-2.28,1.68-.6,3.67-.9,5.99-.9.96,0,1.98.1,3.06.3,1.08.2,2.16.48,3.24.84,1.08.36,2.06.82,2.94,1.38.88.56,1.56,1.22,2.04,1.98.48.76.72,1.62.72,2.58,0,2.56-.64,4.71-1.92,6.47-1.28,1.76-2.8,2.64-4.55,2.64-1.2,0-2.08-.12-2.64-.36-.56-.24-1.02-.52-1.38-.84-.36-.32-.88-.6-1.56-.84-.68-.24-1.74-.36-3.18-.36-1.2,0-2.42.2-3.66.6-1.24.4-2.38,1-3.42,1.8-1.04.8-1.88,1.82-2.52,3.06-.64,1.24-.96,2.66-.96,4.25v29.12c0,1.36-.12,2.58-.36,3.65-.24,1.08-.88,1.94-1.92,2.58-1.04.64-2.72.96-5.03.96Z"/>
    <path class="cls-4" d="M461.55,478.28c-2.16,0-3.76-.34-4.79-1.02-1.04-.68-1.68-1.56-1.92-2.64-.24-1.08-.36-2.3-.36-3.66v-44.58c0-1.28.14-2.46.42-3.54.28-1.08.92-1.94,1.92-2.58,1-.64,2.62-.96,4.85-.96s3.85.32,4.85.96c1,.64,1.62,1.52,1.86,2.64.24,1.12.36,2.36.36,3.71v44.46c0,1.36-.12,2.58-.36,3.65s-.86,1.94-1.86,2.58c-1,.64-2.66.96-4.97.96Z"/>
    <path class="cls-4" d="M488.87,478.16c-2.16,0-3.74-.34-4.73-1.02-1-.68-1.62-1.56-1.86-2.64-.24-1.08-.36-2.3-.36-3.65v-44.82c0-1.28.12-2.44.36-3.48.24-1.04.88-1.86,1.92-2.46,1.04-.6,2.64-.9,4.79-.9,1.92,0,3.36.24,4.31.72.96.48,1.6,1.08,1.92,1.8.32.72.5,1.44.54,2.16.04.72.1,1.28.18,1.68l-.48,3.83c.48-1.28,1.28-2.52,2.4-3.71,1.12-1.2,2.48-2.3,4.07-3.3,1.6-1,3.33-1.8,5.21-2.4,1.88-.6,3.81-.9,5.81-.9,3.75,0,7.11.68,10.07,2.04,2.96,1.36,5.49,3.28,7.61,5.75,2.12,2.48,3.73,5.41,4.85,8.81,1.12,3.4,1.68,7.21,1.68,11.44v23.85c0,1.36-.14,2.58-.42,3.66-.28,1.08-.9,1.94-1.86,2.58-.96.64-2.6.96-4.91.96s-3.88-.34-4.91-1.02c-1.04-.68-1.68-1.56-1.92-2.64-.24-1.08-.36-2.3-.36-3.65v-23.85c0-2.88-.5-5.35-1.5-7.43-1-2.08-2.44-3.67-4.31-4.79-1.88-1.12-4.25-1.68-7.13-1.68s-5.23.58-7.31,1.74c-2.08,1.16-3.68,2.78-4.79,4.85-1.12,2.08-1.68,4.51-1.68,7.31v23.97c0,1.36-.12,2.58-.36,3.66-.24,1.08-.86,1.94-1.86,2.58-1,.64-2.66.96-4.97.96Z"/>
    <path class="cls-4" d="M598.04,478.04c-2.32,0-4.04-.44-5.15-1.32-1.12-.88-1.68-2.08-1.68-3.6l.84-3.95c-.64,1.04-1.72,2.26-3.24,3.66-1.52,1.4-3.52,2.64-5.99,3.71-2.48,1.08-5.47,1.62-8.99,1.62-3.76,0-7.29-.78-10.61-2.34-3.32-1.56-6.23-3.71-8.75-6.47-2.52-2.76-4.51-5.91-5.99-9.47-1.48-3.55-2.22-7.37-2.22-11.44s.74-7.61,2.22-11.08c1.48-3.48,3.49-6.57,6.05-9.29,2.56-2.72,5.49-4.85,8.81-6.41,3.31-1.56,6.81-2.34,10.49-2.34,3.27,0,6.05.44,8.33,1.32,2.28.88,4.21,1.98,5.81,3.3,1.6,1.32,2.92,2.7,3.95,4.13l-.72-3.48c0-1.76.56-3.09,1.68-4.01,1.12-.92,2.88-1.38,5.27-1.38,2.24,0,3.83.34,4.79,1.02.96.68,1.56,1.6,1.8,2.76.24,1.16.36,2.46.36,3.89v43.86c0,1.36-.12,2.6-.36,3.71-.24,1.12-.86,2-1.86,2.64-1,.64-2.62.96-4.85.96ZM575.99,464.13c2.71,0,5.15-.68,7.31-2.04,2.16-1.36,3.89-3.21,5.21-5.57,1.32-2.36,1.98-4.97,1.98-7.85,0-3.12-.68-5.83-2.04-8.15-1.36-2.32-3.14-4.13-5.33-5.45-2.2-1.32-4.66-1.98-7.37-1.98-2.96,0-5.59.7-7.91,2.1-2.32,1.4-4.13,3.28-5.45,5.63-1.32,2.36-1.98,5.01-1.98,7.97s.68,5.47,2.04,7.79c1.36,2.32,3.21,4.15,5.57,5.51,2.36,1.36,5.01,2.04,7.97,2.04Z"/>
  </g>
</svg>