<?xml version="1.0" encoding="UTF-8"?>
<svg id="Layer_1" data-name="Layer 1" xmlns="http://www.w3.org/2000/svg" viewBox="0 0 425.2 425.2">
  <defs>
    <style>
      .cls-1 {
        fill: #b4d8a8;
      }

      .cls-2 {
        fill: #3d8d7a;
      }
    </style>
  </defs>
  <path class="cls-2" d="M303.89,321.46c-31.23-9.43-55.85-34.06-65.28-65.28-4.26-14.09,6.37-28.3,21.09-28.3h50.5c12.14,0,21.99,9.84,21.99,21.99v50.5c0,14.72-14.2,25.34-28.3,21.09Z"/>
  <path class="cls-2" d="M198.97,291.02c62.81-18.96,112.35-68.5,131.31-131.31,8.56-28.34-12.81-56.91-42.42-56.91h-101.58c-24.43,0-44.23,19.8-44.23,44.23v101.58c0,29.61,28.57,50.98,56.91,42.42Z"/>
  <path class="cls-1" d="M149.92,291.02c62.81-18.96,112.35-68.5,131.31-131.31,8.56-28.34-12.81-56.91-42.42-56.91h-101.58c-24.43,0-44.23,19.8-44.23,44.23v101.58c0,29.61,28.57,50.98,56.91,42.42Z"/>
  <g>
    <path class="cls-2" d="M275.27,104.7c-62.81,18.96-112.35,68.5-131.31,131.31-8.56,28.34,12.81,56.91,42.42,56.91h101.58c23.6-2.7,44.05-20.37,44.23-44.23v-101.58c0-29.61-28.57-50.98-56.91-42.42Z"/>
    <path class="cls-2" d="M226.23,104.7c-62.81,18.96-112.35,68.5-131.31,131.31-8.56,28.34,12.81,56.91,42.42,56.91h101.58c24.43,0,44.23-19.8,44.23-44.23v-101.58c0-29.61-28.57-50.98-56.91-42.42Z"/>
  </g>
  <g>
    <path class="cls-1" d="M155.4,221.03c13.4-4.05,23.98-14.62,28.02-28.02,1.83-6.05-2.73-12.15-9.05-12.15h-21.68c-5.21,0-9.44,4.23-9.44,9.44v21.68c0,6.32,6.1,10.88,12.15,9.05Z"/>
    <path class="cls-1" d="M214.96,221.03c13.4-4.05,23.98-14.62,28.02-28.02,1.83-6.05-2.73-12.15-9.05-12.15h-21.68c-5.21,0-9.44,4.23-9.44,9.44v21.68c0,6.32,6.1,10.88,12.15,9.05Z"/>
    <path class="cls-1" d="M274.53,221.03c13.4-4.05,23.98-14.62,28.02-28.02,1.83-6.05-2.73-12.15-9.05-11.39h-21.68c-5.21-.76-9.44,3.47-9.44,8.68v21.68c0,6.32,6.1,10.88,12.15,9.05Z"/>
  </g>
</svg>