<?xml version="1.0" encoding="UTF-8"?>
<svg id="Layer_1" data-name="Layer 1" xmlns="http://www.w3.org/2000/svg" viewBox="0 0 425.2 425.2">
  <defs>
    <style>
      .cls-1 {
        fill: #b4d8a8;
      }

      .cls-2 {
        fill: #3d8d7a;
      }
    </style>
  </defs>
  <g>
    <path class="cls-1" d="M218.29,270.07c-3.97,26.96-25.29,48.28-52.25,52.25-4.79.7-9.1-2.98-9.1-7.82v-31.55c0-12.14,9.84-21.98,21.98-21.98h31.55c4.84,0,8.53,4.31,7.82,9.1Z"/>
    <path class="cls-1" d="M132.47,175.68c55.17,8.12,98.8,51.74,106.91,106.91,1.44,9.8-6.1,18.63-16.01,18.63h-64.56c-24.84,0-44.97-20.13-44.97-44.97v-64.56c0-9.91,8.82-17.45,18.62-16.01Z"/>
    <path class="cls-2" d="M253.01,293.48c-63.19-19.31-113.04-69.16-132.35-132.35-8.86-28.99,12.64-58.34,42.96-58.34h102.75c24.84,0,44.97,20.13,44.97,44.97v102.75c0,30.32-29.34,51.82-58.33,42.96Z"/>
  </g>
  <path class="cls-1" d="M213.81,129.33c40.24,5.92,72.06,37.74,77.98,77.98,1.05,7.15-4.45,13.59-11.67,13.59h-47.09c-18.12,0-32.8-14.69-32.8-32.8v-47.09c0-7.23,6.43-12.73,13.58-11.68Z"/>
</svg>