<?xml version="1.0" encoding="UTF-8"?>
<svg id="Layer_1" data-name="Layer 1" xmlns="http://www.w3.org/2000/svg" viewBox="0 0 425.2 425.2">
  <defs>
    <style>
      .cls-1 {
        fill: #b4d8a8;
      }

      .cls-2 {
        fill: #3d8d7a;
      }
    </style>
  </defs>
  <path class="cls-2" d="M168.53,104.99c72.55,21.91,129.77,79.13,151.67,151.67,9.89,32.74-14.8,65.74-49,65.74h-117.33c-28.21,0-51.09-22.87-51.09-51.09v-117.33c0-34.2,33-58.88,65.74-49Z"/>
  <path class="cls-1" d="M256.67,320.21c-72.55-21.91-129.77-79.13-151.67-151.67-9.89-32.74,14.8-65.74,49-65.74h117.33c28.21,0,51.09,22.87,51.09,51.09v117.33c0,34.2-33,58.88-65.74,49Z"/>
  <path class="cls-2" d="M278.5,269.64c-40.18-5.91-71.95-37.68-77.87-77.87-1.05-7.14,4.45-13.58,11.67-13.58h67.99c6.51,0,11.78,5.28,11.78,11.78v67.99c0,7.22-6.43,12.72-13.57,11.67Z"/>
  <path class="cls-2" d="M174.02,225.28c-20.84-3.07-37.31-19.54-40.38-40.38-.55-3.7,2.31-7.04,6.05-7.04h35.26c3.37,0,6.11,2.74,6.11,6.11v35.26c0,3.74-3.33,6.6-7.04,6.05Z"/>
  <rect class="cls-2" x="133.58" y="132.73" width="158.5" height="31.7" rx="3.42" ry="3.42"/>
</svg>