<?xml version="1.0" encoding="UTF-8"?>
<svg id="Layer_1" data-name="Layer 1" xmlns="http://www.w3.org/2000/svg" viewBox="0 0 425.2 425.2">
  <defs>
    <style>
      .cls-1 {
        fill: #b4d8a8;
      }

      .cls-2 {
        fill: #3d8d7a;
      }
    </style>
  </defs>
  <path class="cls-1" d="M339.43,153.88c0-28.21-22.87-51.09-51.09-51.09h-117.33c-.11,0-.22,0-.33.01-.79,0-1.59.03-2.37.07-.19,0-.38.01-.56.02-.99.06-1.98.15-2.96.27-.03,0-.06,0-.09,0-.92.11-1.83.25-2.73.42-.11.02-.23.03-.35.06-.57.11-1.14.24-1.7.36-9.08,2-17.16,6.38-23.64,12.39-.12.11-.24.21-.36.33-.37.35-.73.72-1.09,1.08-.36.36-.73.72-1.09,1.1-.11.12-.21.24-.32.35-6.01,6.48-10.4,14.56-12.39,23.65-.13.57-.26,1.13-.36,1.7-.02.11-.03.23-.05.34-.16.91-.3,1.82-.42,2.74,0,.03,0,.05,0,.08-.12.98-.21,1.97-.27,2.96-.01.19-.01.38-.02.56-.04.79-.07,1.58-.07,2.37,0,.11,0,.22,0,.33v117.33c0,28.21,22.87,51.09,51.09,51.09h117.33c.11,0,.22,0,.33,0,.8,0,1.59-.03,2.38-.07.18,0,.37-.01.55-.02.99-.06,1.98-.15,2.96-.27.03,0,.05,0,.08,0,.92-.11,1.84-.25,2.74-.42.11-.02.22-.03.34-.05.57-.11,1.14-.24,1.71-.37,9.08-2,17.16-6.38,23.64-12.39.12-.11.24-.21.36-.33.37-.35.73-.72,1.09-1.08.36-.36.73-.72,1.09-1.1.11-.12.21-.24.32-.35,6.01-6.48,10.4-14.56,12.4-23.65.13-.56.26-1.13.36-1.7.02-.11.04-.23.06-.35.16-.91.3-1.82.42-2.73,0-.03,0-.06,0-.09.12-.98.21-1.96.27-2.96.01-.19.01-.38.02-.56.04-.79.07-1.58.07-2.37,0-.11.01-.22.01-.33v-117.33Z"/>
  <path class="cls-2" d="M322.73,174.75c0-.71-.03-1.36-.06-1.86,0-.19-.01-.39-.03-.64-.05-.82-.12-1.65-.22-2.47l-.06-.52c-.09-.74-.21-1.51-.34-2.22-.03-.2-.06-.39-.1-.56-.09-.46-.19-.92-.29-1.38l-.04-.17c-1.81-8.22-5.8-15.87-11.52-22.07l-.39-.42c-.29-.3-.58-.6-.88-.89l-.22-.22c-.29-.29-.58-.58-.88-.87l-.08-.07c-.12-.11-.24-.22-.36-.32-6.21-5.73-13.83-9.72-22.01-11.51l-.18-.04c-.49-.11-.97-.21-1.4-.29-.18-.03-.35-.06-.5-.09-.83-.15-1.61-.26-2.42-.36l-.32-.04c-.85-.1-1.71-.17-2.53-.22-.21-.01-.42-.02-.62-.03-.52-.02-1.19-.05-1.87-.06-.18,0-.36,0-.54,0h-84.26c-26.35,0-47.79,21.44-47.79,47.79v4.52h30.49v-4.52c0-9.54,7.76-17.31,17.31-17.31h83.96c.13,0,.28.01.36,0h.11c.26,0,.52.01.75.03h.32c.3.03.59.06.89.1l.13.02c.25.03.51.07.82.13l.71.15c2.97.65,5.72,2.1,7.99,4.2l.99.99c2.09,2.25,3.54,5.01,4.19,8l.14.7c.05.28.09.55.12.77l.02.18c.04.29.06.59.08.76l.02.39c.01.26.03.53.03.78,0,.16,0,.31,0,.39v74.55c0,9.54-7.76,17.31-17.31,17.31h-83.96c-.13,0-.22,0-.36,0h-.11c-.26,0-.52-.01-.81-.03h-.26c-.29-.03-.59-.06-.9-.09h-.1c-.26-.04-.53-.09-.87-.15l-.68-.14c-2.96-.65-5.73-2.11-8.01-4.22l-.96-.97c-2.09-2.25-3.54-5.02-4.2-8.02l-.14-.67c-.05-.29-.09-.56-.12-.77l-.02-.17c-.03-.29-.06-.58-.08-.79v-.38c-.03-.26-.04-.53-.04-.75,0-.16,0-.32,0-.42v-4.24h-30.49v4.45c0,.18,0,.36,0,.48,0,.71.03,1.36.06,1.88,0,.23.02.46.03.65.05.85.13,1.71.23,2.57l.04.37c.09.76.21,1.52.34,2.27.03.2.06.39.09.54.09.48.19.95.3,1.43l.03.14c1.81,8.23,5.8,15.87,11.52,22.08.12.13.24.26.39.43.3.31.6.62.9.92l.2.2c.3.3.59.59.87.85.16.15.31.29.45.41,6.21,5.73,13.83,9.71,22.04,11.52l.19.04c.46.1.92.2,1.45.3.16.03.33.06.45.08.76.13,1.49.25,2.24.34l.52.06c.83.1,1.68.17,2.47.22.22.01.45.02.65.03.49.02,1.17.05,1.86.06.18,0,.36,0,.54,0h84.26c26.35,0,47.79-21.44,47.79-47.79v-74.76c0-.17,0-.34,0-.51Z"/>
  <path class="cls-2" d="M137.23,243.42c10.29-19.2,10.28-42.45-.01-61.65-4.65-8.66-16.37-10.35-23.32-3.4l-23.84,23.85c-5.73,5.73-5.73,15.03,0,20.76l23.85,23.84c6.95,6.95,18.67,5.26,23.31-3.4Z"/>
  <rect class="cls-2" x="133.82" y="196.93" width="105.45" height="31.33" rx="2.9" ry="2.9"/>
</svg>