<?xml version="1.0" encoding="UTF-8"?>
<svg id="Layer_1" data-name="Layer 1" xmlns="http://www.w3.org/2000/svg" viewBox="0 0 425.2 425.2">
  <defs>
    <style>
      .cls-1 {
        fill: #b4d8a8;
      }

      .cls-2 {
        fill: #3d8d7a;
      }
    </style>
  </defs>
  <path class="cls-2" d="M141.1,200.69c-32.67-9.86-58.44-35.63-68.3-68.3-4.45-14.74,6.66-29.6,22.06-29.6h52.84c12.71,0,23,10.3,23,23v52.83c0,15.4-14.86,26.51-29.6,22.06Z"/>
  <path class="cls-2" d="M214.02,299.71c65.71-19.84,117.53-71.67,137.38-137.38,8.95-29.65-13.4-59.54-44.38-59.54h-106.27c-25.55,0-46.27,20.72-46.27,46.27v106.27c0,30.98,29.89,53.33,59.54,44.38Z"/>
  <path class="cls-1" d="M162.71,299.71c65.71-19.84,117.53-71.67,137.38-137.38,8.95-29.65-13.4-59.54-44.38-59.54h-106.27c-25.55,0-46.27,20.72-46.27,46.27v106.27c0,30.98,29.89,53.33,59.54,44.38Z"/>
  <g>
    <path class="cls-2" d="M293.84,104.78c-65.71,19.84-117.53,71.67-137.38,137.38-8.95,29.65,13.4,59.54,44.38,59.54h106.27c25.55,0,46.27-20.72,46.27-46.27v-106.27c0-30.98-29.89-53.33-59.54-44.38Z"/>
    <path class="cls-2" d="M242.54,104.78c-65.71,19.84-117.53,71.67-137.38,137.38-8.95,29.65,13.4,59.54,44.38,59.54h106.27c25.55,0,46.27-20.72,46.27-46.27v-106.27c0-30.98-29.89-53.33-59.54-44.38Z"/>
  </g>
  <path class="cls-1" d="M168.27,317.75c16.28-4.92,29.12-17.76,34.03-34.03,2.22-7.35-3.32-14.75-10.99-14.75h-26.33c-6.33,0-11.46,5.13-11.46,11.46v26.33c0,7.67,7.4,13.21,14.75,10.99Z"/>
  <path class="cls-1" d="M266.2,321.91c16.28-4.92,29.12-17.76,34.03-34.03,2.22-7.35-3.32-14.75-10.99-14.75h-26.33c-6.33,0-11.46,5.13-11.46,11.46v26.33c0,7.67,7.4,13.21,14.75,10.99Z"/>
</svg>