<?xml version="1.0" encoding="UTF-8"?>
<svg id="Layer_1" data-name="Layer 1" xmlns="http://www.w3.org/2000/svg" viewBox="0 0 425.2 425.2">
  <defs>
    <style>
      .cls-1 {
        fill: #b4d8a8;
      }

      .cls-2 {
        fill: #3d8d7a;
      }
    </style>
  </defs>
  <path class="cls-1" d="M256.67,104.99c-72.55,21.91-129.77,79.13-151.67,151.67-9.89,32.74,14.8,65.74,49,65.74h117.33c28.21,0,51.09-22.87,51.09-51.09v-117.33c0-34.2-33-58.88-65.74-49Z"/>
  <path class="cls-2" d="M168.53,320.21c72.55-21.91,129.77-79.13,151.67-151.67,9.89-32.74-14.8-65.74-49-65.74h-117.33c-28.21,0-51.09,22.87-51.09,51.09v117.33c0,34.2,33,58.88,65.74,49Z"/>
  <path class="cls-1" d="M199.07,271.01c31.11-14.61,56.28-39.78,70.89-70.89,13.68-29.14-8.4-62.56-40.59-62.56h-48.42c-24.54,0-44.44,19.9-44.44,44.44v48.42c0,32.19,33.42,54.27,62.56,40.59Z"/>
</svg>