<?xml version="1.0" encoding="UTF-8"?>
<svg id="Layer_1" data-name="Layer 1" xmlns="http://www.w3.org/2000/svg" viewBox="0 0 425.2 425.2">
  <defs>
    <style>
      .cls-1 {
        fill: #b4d8a8;
      }

      .cls-2 {
        fill: #3d8d7a;
      }
    </style>
  </defs>
  <path class="cls-1" d="M168.53,320.21c72.55-21.91,129.77-79.13,151.67-151.67,9.89-32.74-14.8-65.74-49-65.74h-117.33c-28.21,0-51.09,22.87-51.09,51.09v117.33c0,34.2,33,58.88,65.74,48.99Z"/>
  <path class="cls-2" d="M256.11,105.16c-72.09,21.97-128.97,78.85-150.94,150.94-10.05,32.96,14.37,66.3,48.82,66.3h117.3c28.23,0,51.11-22.88,51.11-51.11v-117.31c0-34.45-33.34-58.87-66.3-48.82Z"/>
  <path class="cls-1" d="M267.98,149.61c-16.57-8.88-36.65-8.88-53.22,0-7.48,4.01-8.94,14.13-2.94,20.13l20.58,20.58c4.95,4.95,12.97,4.95,17.92,0l20.58-20.58c6-6,4.54-16.12-2.94-20.13Z"/>
  <path class="cls-1" d="M288.26,215.69c-29.2-15.66-64.58-15.66-93.78,0-13.18,7.07-15.75,24.9-5.18,35.47l36.27,36.27c8.72,8.72,22.86,8.72,31.59,0l36.27-36.27c10.57-10.57,8-28.4-5.18-35.47Z"/>
</svg>