<?xml version="1.0" encoding="UTF-8"?>
<svg id="Layer_1" data-name="Layer 1" xmlns="http://www.w3.org/2000/svg" viewBox="0 0 425.2 425.2">
  <defs>
    <style>
      .cls-1 {
        fill: #b4d8a8;
      }

      .cls-2 {
        fill: #3d8d7a;
      }
    </style>
  </defs>
  <g>
    <path class="cls-1" d="M168.53,104.99c72.55,21.91,129.77,79.13,151.67,151.67,9.89,32.74-14.8,65.74-49,65.74h-117.33c-28.21,0-51.09-22.87-51.09-51.09v-117.33c0-34.2,33-58.88,65.74-49Z"/>
    <path class="cls-1" d="M256.67,320.21c-72.55-21.91-129.77-79.13-151.67-151.67-9.89-32.74,14.8-65.74,49-65.74h117.33c28.21,0,51.09,22.87,51.09,51.09v117.33c0,34.2-33,58.88-65.74,49Z"/>
  </g>
  <g>
    <g>
      <g>
        <path class="cls-2" d="M152.46,275.08c13.05-6.13,23.61-16.69,29.74-29.74,5.74-12.23-3.52-26.25-17.03-26.25h-20.32c-10.3,0-18.64,8.35-18.64,18.64v20.32c0,13.51,14.02,22.77,26.25,17.03Z"/>
        <path class="cls-2" d="M182.2,178.46c-6.13-13.05-16.69-23.61-29.74-29.74-12.23-5.74-26.25,3.52-26.25,17.03v20.32c0,10.3,8.35,18.64,18.64,18.64h20.32c13.51,0,22.77-14.02,17.03-26.25Z"/>
      </g>
      <g>
        <path class="cls-2" d="M272.56,148.72c-13.05,6.13-23.61,16.69-29.74,29.74-5.74,12.23,3.52,26.25,17.03,26.25h20.32c10.3,0,18.64-8.35,18.64-18.64v-20.32c0-13.51-14.02-22.77-26.25-17.03Z"/>
        <path class="cls-2" d="M243,245.34c6.13,13.05,16.69,23.61,29.74,29.74,12.23,5.74,26.25-3.52,26.25-17.03v-20.32c0-10.3-8.35-18.64-18.64-18.64h-20.32c-13.51,0-22.77,14.02-17.03,26.25Z"/>
      </g>
    </g>
    <path class="cls-2" d="M233.63,123.09c-13.56-4.9-28.5-4.9-42.06,0-12.7,4.59-16.07,21.05-6.52,30.6l14.37,14.37c7.28,7.28,19.09,7.28,26.37,0l14.37-14.37c9.55-9.55,6.19-26.01-6.52-30.6Z"/>
    <path class="cls-2" d="M191.57,302.1c13.56,4.9,28.5,4.9,42.06,0,12.7-4.59,16.07-21.05,6.52-30.6l-14.37-14.37c-7.28-7.28-19.09-7.28-26.37,0l-14.37,14.37c-9.55,9.55-6.19,26.01,6.52,30.6Z"/>
  </g>
</svg>