<?xml version="1.0" encoding="UTF-8"?>
<svg id="Layer_1" data-name="Layer 1" xmlns="http://www.w3.org/2000/svg" viewBox="0 0 425.2 425.2">
  <defs>
    <style>
      .cls-1 {
        fill: #3d8d7a;
      }
    </style>
  </defs>
  <g>
    <g>
      <path class="cls-1" d="M141.72,286.23c15.38-7.22,27.83-19.67,35.05-35.05,6.77-14.41-4.15-30.93-20.07-30.93h-23.94c-12.13,0-21.97,9.84-21.97,21.97v23.94c0,15.92,16.52,26.83,30.93,20.07Z"/>
      <path class="cls-1" d="M176.78,172.37c-7.22-15.38-19.67-27.83-35.05-35.05-14.41-6.77-30.93,4.15-30.93,20.07v23.94c0,12.13,9.84,21.97,21.97,21.97h23.94c15.92,0,26.83-16.52,20.07-30.93Z"/>
    </g>
    <g>
      <path class="cls-1" d="M283.27,137.32c-15.38,7.22-27.83,19.67-35.05,35.05-6.77,14.41,4.15,30.93,20.07,30.93h23.94c12.13,0,21.97-9.84,21.97-21.97v-23.94c0-15.92-16.52-26.83-30.93-20.07Z"/>
      <path class="cls-1" d="M248.42,251.18c7.22,15.38,19.67,27.83,35.05,35.05,14.41,6.77,30.93-4.15,30.93-20.07v-23.94c0-12.13-9.84-21.97-21.97-21.97h-23.94c-15.92,0-26.83,16.52-20.07,30.93Z"/>
    </g>
  </g>
  <path class="cls-1" d="M237.38,107.12c-15.99-5.77-33.59-5.77-49.57,0-14.97,5.4-18.94,24.81-7.68,36.06l16.93,16.93c8.58,8.58,22.49,8.58,31.07,0l16.93-16.93c11.25-11.25,7.29-30.66-7.68-36.06Z"/>
  <path class="cls-1" d="M187.81,318.08c15.99,5.77,33.59,5.77,49.57,0,14.97-5.4,18.94-24.81,7.68-36.06l-16.93-16.93c-8.58-8.58-22.49-8.58-31.07,0l-16.93,16.93c-11.25,11.25-7.29,30.66,7.68,36.06Z"/>
</svg>